<?xml version="1.0" standalone="no"?>
<svg xmlns="http://www.w3.org/2000/svg" viewBox="0 0 168.144 29" width="168.144" height="29"><g fill="#fea701" color="#fea701" transform="translate(0, 0) scale(0.29)"><svg width="100.0" height="100.0" x="0.0" y="0.0" viewBox="0 0 100 100"><title></title><path d="M81.5,59a9.51,9.51,0,0,0-8.82,6H44.32a9.51,9.51,0,0,0-8.54-6l-1.54-5h6a8.26,8.26,0,0,0,7.61,5H74.64A8.29,8.29,0,0,0,82,54.47l7.87-15.35A8.32,8.32,0,0,0,82.51,27H43.11a8.32,8.32,0,0,0-8.29,9H28.7L25,23.93A3.23,3.23,0,0,0,21,21H11a3,3,0,0,0,0,6h8.66L30,60.74A9.49,9.49,0,1,0,44.66,71H72.34A9.5,9.5,0,1,0,81.5,59ZM41.24,33.94A2.3,2.3,0,0,1,43.11,33h39.4a2.32,2.32,0,0,1,2.07,3.38L76.71,51.74A2.31,2.31,0,0,1,74.64,53H47.83a2.31,2.31,0,0,1-2.22-1.64L40.89,36A2.3,2.3,0,0,1,41.24,33.94ZM36.46,42l1.84,6H32.39l-1.84-6Zm-1,30A3.5,3.5,0,1,1,39,68.5,3.5,3.5,0,0,1,35.5,72Zm46,0A3.5,3.5,0,1,1,85,68.5,3.5,3.5,0,0,1,81.5,72Z"></path><path d="M51,48H72a3,3,0,0,0,0-6H51a3,3,0,0,0,0,6Z"></path></svg></g><line x1="41" y1="1" x2="41" y2="28" stroke="#fe4e01" stroke-linecap="round"></line><path fill="#fe4e01" fill-rule="nonzero" d="M1.25 11.69Q1.99 11.69 2.40 12.14Q2.81 12.60 2.81 13.26Q2.81 13.92 2.59 14.33L2.59 14.33Q3.65 15.19 5.03 15.19Q6.41 15.19 7.10 14.56Q7.80 13.92 7.80 12.82Q7.80 11.71 7.03 10.92Q6.26 10.13 5.17 9.60Q4.08 9.07 3 8.48Q1.92 7.90 1.15 6.91Q0.38 5.93 0.38 4.58L0.38 4.58Q0.38 2.74 1.61 1.69Q2.83 0.65 4.75 0.65Q6.67 0.65 8.08 1.56Q9.48 2.47 9.48 4.02Q9.48 5.57 8.23 5.57L8.23 5.57Q7.49 5.57 7.08 5.11Q6.67 4.66 6.67 3.94Q6.67 3.22 6.96 2.83L6.96 2.83Q6.12 2.06 4.90 2.06Q3.67 2.06 3.06 2.69Q2.45 3.31 2.45 4.25Q2.45 5.18 3 5.84Q3.55 6.50 4.37 6.92Q5.18 7.34 6.14 7.88Q7.10 8.42 7.92 8.95Q8.74 9.48 9.29 10.38Q9.84 11.28 9.84 12.43L9.84 12.43Q9.84 14.33 8.53 15.53Q7.22 16.73 5.18 16.73Q3.14 16.73 1.57 15.78Q0 14.83 0 13.13L0 13.13Q0 11.69 1.25 11.69L1.25 11.69ZM12.98 10.80L12.98 10.80L12.98 7.51Q12.98 3.19 12.86 1.63L12.86 1.63L11.90 1.56Q11.83 1.25 11.83 0.83Q11.83 0.41 11.86 0.22L11.86 0.22Q14.04 0.10 14.98 0L14.98 0L15.07 0.12Q14.74 2.98 14.74 6.26L14.74 6.26L14.74 10.22Q14.74 13.18 14.95 14.98L14.95 14.98L15.84 15.05Q15.89 15.43 15.89 15.71Q15.89 15.98 15.82 16.39L15.82 16.39Q14.98 16.37 13.87 16.37Q12.77 16.37 11.95 16.39L11.95 16.39Q11.88 16.03 11.88 15.76Q11.88 15.48 11.93 15.05L11.93 15.05L12.77 14.98Q12.98 12.72 12.98 10.80ZM18.38 5.16L18.38 5.16Q18.98 5.18 19.84 5.18Q20.69 5.18 21.36 5.16L21.36 5.16Q21.43 5.47 21.43 5.84Q21.43 6.22 21.38 6.50L21.38 6.50L20.35 6.58Q19.92 7.10 18.82 8.35Q17.71 9.60 17.18 10.22L17.18 10.22Q19.51 13.54 20.78 14.98L20.78 14.98L21.82 15.05Q21.86 15.34 21.86 15.71Q21.86 16.08 21.79 16.39L21.79 16.39Q20.93 16.37 19.97 16.37Q19.01 16.37 18.38 16.39L18.38 16.39Q18.29 15.38 18.12 14.98L18.12 14.98Q17.28 13.32 15.12 10.92L15.12 10.92L15.19 10.68Q17.09 8.38 18.10 6.58L18.10 6.58Q18.29 6.10 18.38 5.16ZM23.52 15.05L24.36 14.98Q24.58 12.62 24.58 10.67Q24.58 8.71 24.38 6.60L24.38 6.60L23.50 6.53Q23.42 6.12 23.42 5.75Q23.42 5.38 23.45 5.18L23.45 5.18Q24.84 5.14 26.42 4.97L26.42 4.97L26.54 5.09Q26.33 6.50 26.33 9.84Q26.33 13.18 26.54 14.98L26.54 14.98L27.43 15.05Q27.48 15.43 27.48 15.71Q27.48 15.98 27.41 16.39L27.41 16.39Q26.57 16.37 25.46 16.37Q24.36 16.37 23.54 16.39L23.54 16.39Q23.47 16.03 23.47 15.65Q23.47 15.26 23.52 15.05L23.52 15.05ZM26.78 1.66L26.78 1.66Q26.78 3.14 25.25 3.14L25.25 3.14Q24.05 3.14 24.05 1.92L24.05 1.92Q24.05 0.41 25.58 0.41L25.58 0.41Q26.78 0.41 26.78 1.66ZM35.76 4.90L35.76 4.90Q39.14 4.90 39.14 10.66L39.14 10.66Q39.14 12.86 38.28 14.66L38.28 14.66Q37.80 15.62 36.84 16.18Q35.88 16.73 34.70 16.73Q33.53 16.73 32.26 16.15L32.26 16.15Q32.38 19.15 32.47 19.99L32.47 19.99L33.36 20.06L33.41 20.69Q33.41 21.17 33.34 21.41L33.34 21.41Q32.76 21.38 31.36 21.38Q29.95 21.38 29.47 21.41L29.47 21.41Q29.40 21 29.40 20.69Q29.40 20.38 29.45 20.06L29.45 20.06L30.34 19.99Q30.53 17.38 30.53 13.00Q30.53 8.62 30.34 6.60L30.34 6.60L29.45 6.53Q29.38 6.31 29.38 5.84Q29.38 5.38 29.40 5.18L29.40 5.18Q30.50 5.16 32.35 4.97L32.35 4.97L32.47 5.09Q32.38 5.78 32.35 6.46L32.35 6.46Q34.01 4.90 35.76 4.90ZM34.49 15.00L34.49 15.00Q37.10 15.00 37.10 10.34L37.10 10.34Q37.10 7.51 36.17 6.77L36.17 6.77Q35.74 6.43 35.04 6.43Q34.34 6.43 33.58 6.89Q32.81 7.34 32.28 7.99L32.28 7.99Q32.23 9.98 32.23 14.45L32.23 14.45Q33.62 15.00 34.49 15.00ZM47.66 12.48L47.66 12.48Q47.66 12.48 47.71 7.13L47.71 7.13Q47.71 6.77 47.69 6.58L47.69 6.58Q46.68 6.58 46.25 6.60L46.25 6.60Q46.10 6.22 46.10 5.84Q46.10 5.47 46.15 5.28L46.15 5.28L47.62 5.28L47.50 3.50Q48.10 3.31 48.76 3.31Q49.42 3.31 49.85 3.41L49.85 3.41L49.63 5.26Q50.95 5.23 52.30 5.11L52.30 5.11Q52.44 5.42 52.44 5.80Q52.44 6.17 52.34 6.70L52.34 6.70Q51.46 6.65 49.54 6.60L49.54 6.60Q49.49 7.08 49.49 8.02L49.49 8.02L49.49 12.89Q49.49 13.51 49.55 13.91Q49.61 14.30 49.86 14.63Q50.11 14.95 50.59 14.95L50.59 14.95Q51.65 14.95 52.61 14.21L52.61 14.21Q53.11 14.93 53.11 16.15L53.11 16.15Q51.79 16.73 50.82 16.73Q49.85 16.73 49.27 16.48Q48.70 16.22 48.38 15.88Q48.07 15.53 47.90 14.90L47.90 14.90Q47.66 14.02 47.66 12.48ZM63.86 7.97L63.86 7.97L63.84 10.30Q63.84 12.84 64.13 14.98L64.13 14.98L64.97 15.05Q65.02 15.43 65.02 15.71Q65.02 15.98 64.94 16.39L64.94 16.39Q64.10 16.37 62.96 16.37Q61.82 16.37 61.01 16.39L61.01 16.39Q60.94 16.03 60.94 15.76Q60.94 15.48 60.98 15.05L60.98 15.05L61.82 14.98Q62.02 12.38 62.02 10.37Q62.02 8.35 61.67 7.39Q61.32 6.43 60.26 6.43L60.26 6.43Q58.92 6.43 57.38 7.97L57.38 7.97L57.38 10.22Q57.38 13.18 57.60 14.98L57.60 14.98L58.49 15.05Q58.54 15.43 58.54 15.71Q58.54 15.98 58.46 16.39L58.46 16.39Q57.62 16.37 56.52 16.37Q55.42 16.37 54.60 16.39L54.60 16.39Q54.53 16.03 54.53 15.76Q54.53 15.48 54.58 15.05L54.58 15.05L55.42 14.98Q55.63 12.72 55.63 10.80L55.63 10.80L55.63 7.51Q55.63 3.19 55.51 1.63L55.51 1.63L54.55 1.56Q54.48 1.25 54.48 0.83Q54.48 0.41 54.50 0.22L54.50 0.22Q56.69 0.10 57.62 0L57.62 0L57.72 0.12Q57.38 2.98 57.38 6.55L57.38 6.55Q58.10 5.83 59.11 5.36Q60.12 4.90 61.03 4.90L61.03 4.90Q63.86 4.90 63.86 7.97ZM71.26 11.04L71.26 11.04Q70.08 11.04 69.07 10.92L69.07 10.92Q69.12 15.00 71.78 15.00L71.78 15.00Q73.13 15.00 74.76 13.51L74.76 13.51Q75.46 14.23 75.65 15.41L75.65 15.41Q73.68 16.73 71.47 16.73Q69.26 16.73 68.18 15.20Q67.10 13.68 67.10 10.73Q67.10 7.78 68.32 6.34Q69.53 4.90 71.76 4.90L71.76 4.90Q73.42 4.90 74.50 5.90Q75.58 6.91 75.59 8.38Q75.60 9.84 75.34 10.46L75.34 10.46Q73.54 11.04 71.26 11.04ZM71.59 6.24L71.59 6.24Q69.36 6.24 69.10 9.53L69.10 9.53Q70.18 9.65 71.47 9.65Q72.77 9.65 73.49 9.41L73.49 9.41Q73.58 8.81 73.58 8.52L73.58 8.52Q73.58 7.46 73.04 6.85Q72.50 6.24 71.59 6.24ZM84.60 10.80L84.60 10.80L84.60 7.51Q84.60 3.19 84.48 1.63L84.48 1.63L83.52 1.56Q83.45 1.25 83.45 0.83Q83.45 0.41 83.47 0.22L83.47 0.22Q85.66 0.10 86.59 0L86.59 0L86.69 0.12Q86.35 2.98 86.35 6.26L86.35 6.26L86.35 10.22Q86.35 13.18 86.57 14.98L86.57 14.98L87.46 15.05Q87.50 15.43 87.50 15.71Q87.50 15.98 87.43 16.39L87.43 16.39Q86.59 16.37 85.49 16.37Q84.38 16.37 83.57 16.39L83.57 16.39Q83.50 16.03 83.50 15.76Q83.50 15.48 83.54 15.05L83.54 15.05L84.38 14.98Q84.60 12.72 84.60 10.80ZM89.76 15.05L90.60 14.98Q90.82 12.62 90.82 10.67Q90.82 8.71 90.62 6.60L90.62 6.60L89.74 6.53Q89.66 6.12 89.66 5.75Q89.66 5.38 89.69 5.18L89.69 5.18Q91.08 5.14 92.66 4.97L92.66 4.97L92.78 5.09Q92.57 6.50 92.57 9.84Q92.57 13.18 92.78 14.98L92.78 14.98L93.67 15.05Q93.72 15.43 93.72 15.71Q93.72 15.98 93.65 16.39L93.65 16.39Q92.81 16.37 91.70 16.37Q90.60 16.37 89.78 16.39L89.78 16.39Q89.71 16.03 89.71 15.65Q89.71 15.26 89.76 15.05L89.76 15.05ZM93.02 1.66L93.02 1.66Q93.02 3.14 91.49 3.14L91.49 3.14Q90.29 3.14 90.29 1.92L90.29 1.92Q90.29 0.41 91.82 0.41L91.82 0.41Q93.02 0.41 93.02 1.66ZM105.36 7.97L105.36 7.97L105.34 10.30Q105.34 12.82 105.62 14.98L105.62 14.98L106.46 15.05Q106.51 15.58 106.51 15.78Q106.51 15.98 106.44 16.39L106.44 16.39Q105.77 16.37 104.42 16.37Q103.08 16.37 102.50 16.39L102.50 16.39Q102.43 16.03 102.43 15.71Q102.43 15.38 102.48 15.05L102.48 15.05L103.32 14.98Q103.51 12.17 103.51 10.16Q103.51 8.16 103.12 7.30Q102.72 6.43 101.76 6.43L101.76 6.43Q100.46 6.43 98.90 7.99L98.90 7.99Q98.88 8.62 98.88 10.91Q98.88 13.20 99.10 14.98L99.10 14.98L99.98 15.05Q100.03 15.58 100.03 15.78Q100.03 15.98 99.96 16.39L99.96 16.39Q99.29 16.37 97.99 16.37Q96.70 16.37 96.10 16.39L96.10 16.39Q96.02 16.03 96.02 15.71Q96.02 15.38 96.07 15.05L96.07 15.05L96.91 14.98Q97.13 12.58 97.13 10.57Q97.13 8.57 96.94 6.60L96.94 6.60L96.05 6.53Q95.98 6.12 95.98 5.72Q95.98 5.33 96 5.18L96 5.18Q97.22 5.16 98.98 4.97L98.98 4.97L99.10 5.09Q99.05 5.38 98.95 6.53L98.95 6.53Q99.70 5.78 100.68 5.34Q101.66 4.90 102.53 4.90L102.53 4.90Q105.36 4.90 105.36 7.97ZM112.75 11.04L112.75 11.04Q111.58 11.04 110.57 10.92L110.57 10.92Q110.62 15.00 113.28 15.00L113.28 15.00Q114.62 15.00 116.26 13.51L116.26 13.51Q116.95 14.23 117.14 15.41L117.14 15.41Q115.18 16.73 112.97 16.73Q110.76 16.73 109.68 15.20Q108.60 13.68 108.60 10.73Q108.60 7.78 109.81 6.34Q111.02 4.90 113.26 4.90L113.26 4.90Q114.91 4.90 115.99 5.90Q117.07 6.91 117.08 8.38Q117.10 9.84 116.83 10.46L116.83 10.46Q115.03 11.04 112.75 11.04ZM113.09 6.24L113.09 6.24Q110.86 6.24 110.59 9.53L110.59 9.53Q111.67 9.65 112.97 9.65Q114.26 9.65 114.98 9.41L114.98 9.41Q115.08 8.81 115.08 8.52L115.08 8.52Q115.08 7.46 114.54 6.85Q114 6.24 113.09 6.24Z" transform="translate(51, 6.316)"></path></svg>